<svg width="22" height="29" viewBox="0 0 22 29" fill="white" xmlns="http://www.w3.org/2000/svg">
    <path d="M2.49694 26.6448C2.34233 27.1031 2.18221 27.6001 2.08835 27.9148H2.06074C1.9724 27.6056 1.80675 27.1087 1.65215 26.6448L0.801844 24.1105H0.183439L1.69632 28.4945H2.4362L3.94908 24.1105H3.35276L2.49694 26.6448ZM4.96503 28.4945H5.55031V24.1105H4.96503V28.4945ZM8.45461 25.9271C7.85829 25.8884 7.38896 25.8994 7.38896 25.2369C7.38896 24.7731 7.76442 24.5191 8.42148 24.5191C8.69755 24.5191 9.11166 24.5301 9.52577 24.6682V24.1823C9.16135 24.0553 8.64786 24.0332 8.43252 24.0332C7.57669 24.0332 6.76503 24.2982 6.76503 25.281C6.76503 26.2307 7.37792 26.4847 8.13988 26.5123C8.76933 26.5289 9.23866 26.5841 9.23866 27.2798C9.23866 27.7436 8.91289 28.0639 8.09019 28.0639C7.81411 28.0639 7.22332 28.0363 6.80369 27.8817V28.3952C7.17915 28.5498 7.86381 28.5774 8.07915 28.5774C8.96258 28.5774 9.86258 28.2792 9.86258 27.2191C9.8681 26.1534 9.16687 25.9767 8.45461 25.9271ZM10.9834 28.4945H11.5742V24.1105H10.9834V28.4945ZM16.5491 26.3025C16.5491 27.7215 16.1405 28.5718 14.6773 28.5718C13.2141 28.5718 12.811 27.716 12.811 26.3025C12.811 24.8835 13.2196 24.0332 14.6773 24.0332C16.1405 24.0332 16.5491 24.889 16.5491 26.3025ZM15.9362 26.3025C15.9362 25.0933 15.6656 24.5191 14.6828 24.5191C13.7 24.5191 13.4295 25.0933 13.4295 26.3025C13.4295 27.5117 13.7 28.086 14.6828 28.086C15.6656 28.086 15.9362 27.5117 15.9362 26.3025ZM20.6405 25.3197C20.6405 25.9657 20.646 26.9375 20.6626 27.6277H20.6405C20.4417 27.2798 20.3092 27.0424 20.1215 26.7553L18.4153 24.1105H17.7914V28.4945H18.3601V27.2853C18.3601 26.6393 18.3546 25.6675 18.3436 24.9774H18.3601C18.5589 25.3252 18.6914 25.5571 18.8791 25.8498L20.5853 28.4945H21.2147V24.1105H20.646V25.3197H20.6405ZM21.2368 17.5289C21.038 17.8767 19.6522 20.389 19.6522 20.389C19.6522 20.389 19.6522 21.8136 19.6522 22.0344H18.5644V20.378C18.5644 20.378 17.2282 17.8657 17.0405 17.5234H18.062L19.1497 19.5608L20.2761 17.5234H21.2368V17.5289ZM9.05093 19.1025V20.5215C9.05093 21.1565 8.85767 21.6093 8.47669 21.8467C8.18405 22.051 7.67608 22.1504 6.96381 22.1504C6.24049 22.1504 5.74908 22.051 5.43988 21.8412C5.06442 21.6203 4.87669 21.1786 4.87669 20.5215V19.1025C4.87669 18.451 5.0589 18.0313 5.4454 17.7829C5.81534 17.5455 6.29571 17.4516 6.96381 17.4516C7.64295 17.4516 8.16749 17.5675 8.47669 17.7829C8.86319 18.0313 9.05093 18.4786 9.05093 19.1025ZM8.02945 19.108C8.02945 18.3295 7.74786 18.1583 6.96381 18.1583C6.17976 18.1583 5.89816 18.3295 5.89816 19.108V20.4608C5.89816 21.2614 6.17424 21.4436 6.96381 21.4436C7.74786 21.4436 8.02945 21.2614 8.02945 20.4608V19.108ZM2.59632 22.0344H0.177917V17.5234H2.44172C3.73375 17.5234 4.2362 18.0093 4.2362 19.2461V20.2399C4.23068 21.5485 3.78896 22.0344 2.59632 22.0344ZM2.44724 21.3387C2.80062 21.3387 3.22025 21.1399 3.22025 20.3504V19.1191C3.22025 18.3847 2.80062 18.186 2.44724 18.186H1.19939V21.3387H2.44724ZM9.80184 17.5289V22.0399H12.7006V21.289H10.8233V17.5289H9.80184ZM16.9466 20.8418C16.9466 21.3553 16.665 21.6755 16.4497 21.8246C16.3227 21.9129 16.0522 22.0399 15.3951 22.0399H13.2583V17.5289H15.362C15.8423 17.5289 16.0687 17.6117 16.262 17.7332C16.4939 17.8767 16.7037 18.1307 16.7037 18.6221C16.7037 19.1853 16.5325 19.5774 15.7319 19.6491C16.7368 19.6271 16.9466 20.2344 16.9466 20.8418ZM16.0245 20.6209C16.0245 19.8976 15.4669 19.9418 14.7712 19.9418V19.4172C15.5497 19.3896 15.8258 19.3731 15.8258 18.8099C15.8258 18.4399 15.616 18.1749 15.2736 18.1749H14.2687V18.1804V21.3829V21.3884H15.1908C15.7982 21.3829 16.0245 20.9798 16.0245 20.6209ZM21.2534 15.5853H0.183439V0.964478H21.2534V15.5853ZM9.64724 8.25282C9.64724 5.33196 7.56565 2.85834 5.06994 2.85834H2.6681V13.6915H5.06994C7.56013 13.697 9.64724 11.262 9.64724 8.25282ZM18.7742 2.85834H16.3669C13.8712 2.85834 11.7896 5.33196 11.7896 8.25282C11.7896 11.262 13.8712 13.6915 16.3669 13.6915H18.7742V2.85834Z" fill="#C4C4C4"/>
</svg>
