<svg width="72" height="19" viewBox="0 0 72 19" fill="white" xmlns="http://www.w3.org/2000/svg">
    <path d="M0 0V18.9757H26.148V0H0ZM43.548 0C42.2256 0 41.2656 0.19298 40.5288 0.692895C39.7584 1.20867 39.4032 2.08116 39.4032 3.43896V6.38296C39.4032 7.75017 39.78 8.67048 40.5288 9.12878C41.1336 9.56825 42.1104 9.77238 43.548 9.77238C44.9688 9.77238 45.9888 9.57618 46.5696 9.15355C47.3184 8.66825 47.6952 7.70385 47.6952 6.38296V3.43896C47.6952 2.14533 47.3232 1.22502 46.5696 0.692895C45.9504 0.244755 44.904 0 43.548 0ZM30.0312 0.17341V9.54917H34.8504C37.2192 9.54917 38.1096 8.53522 38.1096 5.81393V3.76051C38.1096 1.17919 37.1088 0.17341 34.536 0.17341H30.0312ZM49.1808 0.17341V9.54917H54.96V7.99121H51.2184V0.17341H49.1808ZM56.0856 0.17341V9.54917H60.3264C61.6344 9.54917 62.1816 9.28559 62.436 9.10425C62.8704 8.80203 63.42 8.12028 63.42 7.05084C63.4176 5.79015 63 4.5302 60.9984 4.57702C62.5896 4.42566 62.94 3.61906 62.94 2.44954C62.94 1.41279 62.532 0.889839 62.0784 0.594052C61.692 0.343103 61.2336 0.17341 60.2784 0.17341H56.0856ZM63.6096 0.17341C63.9864 0.890087 66.6552 6.11071 66.6552 6.11096V9.54917H68.8344C68.8344 9.08369 68.8344 6.11096 68.8344 6.11096C68.8344 6.11071 71.5824 0.895785 71.976 0.17341H70.0584L67.8024 4.40386L65.6472 0.17341H63.6096ZM42.9984 1.48463C43.1616 1.47175 43.3536 1.48463 43.548 1.48463C45.1128 1.48463 45.6576 1.81659 45.6576 3.43896V6.25935C45.6576 7.92234 45.1128 8.31276 43.548 8.31276C41.988 8.31276 41.4408 7.92234 41.4408 6.25935V3.43896C41.4408 2.01923 41.8464 1.57382 42.9984 1.48463ZM58.0992 1.50916H60.0888C60.7656 1.50916 61.188 2.07943 61.188 2.84516C61.188 4.02137 60.6624 4.04812 59.1024 4.10684V5.1956C60.492 5.1899 61.5984 5.07942 61.5984 6.5809C61.5984 7.33548 61.1448 8.18915 59.9448 8.18915H58.0992V8.16388V1.50916ZM32.0688 1.53393H34.536C35.2392 1.53393 36.096 1.96077 36.096 3.48851V6.03664C36.096 7.67982 35.2392 8.0903 34.536 8.0903H32.0688V1.53393ZM3.09168 2.47406H6.06336C9.15744 2.47406 11.7437 5.66232 11.7437 9.45107C11.7444 13.3483 9.15744 16.5017 6.06336 16.5017H3.09168V2.47406ZM20.0851 2.47406H23.0808V16.5017H20.0851C16.9896 16.5017 14.4041 13.3483 14.4041 9.45107C14.4041 5.66232 16.9896 2.47406 20.0851 2.47406ZM71.136 7.7685C70.668 7.7685 70.2744 8.14802 70.2744 8.65934C70.2744 9.17461 70.668 9.54917 71.136 9.54917C71.5992 9.55017 72 9.17411 72 8.65934C72 8.14802 71.5992 7.7685 71.136 7.7685ZM71.136 7.91689C71.5272 7.91689 71.8296 8.23423 71.8296 8.65934C71.8296 9.09311 71.5272 9.40128 71.136 9.40128C70.74 9.40128 70.4424 9.09311 70.4424 8.65934C70.4424 8.23423 70.74 7.91689 71.136 7.91689ZM70.8024 8.13935V9.17882H70.968V8.73291H71.136L71.4 9.17882H71.544L71.28 8.73291C71.4264 8.71408 71.5176 8.61673 71.5176 8.43613C71.5176 8.23275 71.4216 8.13935 71.184 8.13935H70.8024ZM70.968 8.28824H71.1576C71.3352 8.28824 71.3736 8.33952 71.3736 8.43613C71.3784 8.55083 71.3232 8.60954 71.136 8.60954H70.968V8.28824ZM52.896 11.6526C52.0128 11.6526 51.3744 11.7961 50.8824 12.1721C50.3688 12.5601 50.1168 13.2051 50.1168 14.2255V16.4519C50.1168 17.4794 50.3832 18.1612 50.8824 18.5053C51.288 18.8355 51.9384 19 52.896 19C53.844 19 54.5232 18.8474 54.9096 18.5301C55.4112 18.1649 55.6752 17.4445 55.6752 16.4519V14.2255C55.6752 13.2535 55.4136 12.572 54.9096 12.1721C54.4944 11.8355 53.8008 11.6526 52.896 11.6526ZM62.364 11.8008V12.1473H62.796V13.384H63.1296V12.1473H63.5616V11.8008H62.364ZM63.732 11.8008V13.384H64.0416V12.3453L64.4016 13.137H64.5456L64.9296 12.2464L64.9512 13.384H65.2392V11.8008H64.8576L64.4712 12.6175L64.1136 11.8008H63.732ZM42.1584 11.826V18.951H43.572V14.3246L45.132 17.7881H45.8256L47.5752 13.8542L47.6232 18.951H48.9672V11.826H47.2152L45.4656 15.5613L43.86 11.826H42.1584ZM35.976 11.8506V13.4095H37.9176V18.9757H39.4512V13.4095H41.3688V11.8506H35.976ZM32.1648 11.8751L29.6952 18.951H31.1088L31.6848 17.3677H34.2744L34.8504 18.951H36.24L33.8184 11.8751H32.1648ZM58.4352 11.8996C57.2064 11.8996 56.7336 12.4657 56.7336 13.434V14.4725C56.7336 15.4312 57.12 15.7503 58.1448 15.9079L59.6064 16.1306C59.964 16.189 60.0624 16.3062 60.0624 16.625V17.2934C60.0624 17.5681 59.9472 17.7138 59.6784 17.7138H56.7552V18.4555C57.012 18.7642 57.5664 18.8528 57.9768 18.8514H59.7768C60.9312 18.8514 61.332 18.351 61.332 17.3425V16.2785C61.332 15.2732 61.0368 14.97 60.1344 14.8439L58.4352 14.5969C58.152 14.5582 57.9768 14.4549 57.9768 14.1264V13.5076C57.9768 13.1665 58.0512 13.0627 58.3368 13.0627H61.0944V12.2955C60.8712 12.0034 60.2808 11.8996 59.8728 11.8996H58.4352ZM52.536 12.7657C52.6464 12.7563 52.7664 12.7657 52.896 12.7657C53.94 12.7657 54.312 13.0317 54.312 14.2503V16.3528C54.312 17.6021 53.94 17.887 52.896 17.887C51.8544 17.887 51.4824 17.6021 51.4824 16.3528V14.2503C51.4824 13.1838 51.768 12.8331 52.536 12.7657ZM32.9784 13.8299L33.6984 15.8088L32.2128 15.8335L32.9784 13.8299Z" fill="#B8BBBE"/>
</svg>
