<?xml version="1.0" encoding="utf-8"?>
<!-- Generator: Adobe Illustrator 19.2.1, SVG Export Plug-In . SVG Version: 6.00 Build 0)  -->
<svg version="1.1" id="layer" xmlns="http://www.w3.org/2000/svg" xmlns:xlink="http://www.w3.org/1999/xlink" x="0px" y="0px"
	 viewBox="0 0 652 652" style="enable-background:new 0 0 652 652;" xml:space="preserve">
<g>
	<path d="M172,536.9c-2.8,8.3-5.7,17.3-7.4,23h-0.5c-1.6-5.6-4.6-14.6-7.4-23L141.3,491h-11.2l27.4,79.4h13.4l27.4-79.4h-10.8
		L172,536.9z M216.7,570.4h10.6V491h-10.6V570.4z M279.9,523.9c-10.8-0.7-19.3-0.5-19.3-12.5c0-8.4,6.8-13,18.7-13
		c5,0,12.5,0.2,20,2.7v-8.8c-6.6-2.3-15.9-2.7-19.8-2.7c-15.5,0-30.2,4.8-30.2,22.6c0,17.2,11.1,21.8,24.9,22.3
		c11.4,0.3,19.9,1.3,19.9,13.9c0,8.4-5.9,14.2-20.8,14.2c-5,0-15.7-0.5-23.3-3.3v9.3c6.8,2.8,19.2,3.3,23.1,3.3
		c16,0,32.3-5.4,32.3-24.6C305.5,528,292.8,524.8,279.9,523.9 M325.7,570.4h10.7V491h-10.7V570.4z M426.5,530.7
		c0,25.7-7.4,41.1-33.9,41.1c-26.5,0-33.8-15.5-33.8-41.1c0-25.7,7.4-41.1,33.8-41.1C419.1,489.6,426.5,505.1,426.5,530.7
		 M415.4,530.7c0-21.9-4.9-32.3-22.7-32.3s-22.7,10.4-22.7,32.3c0,21.9,4.9,32.3,22.7,32.3S415.4,552.6,415.4,530.7 M500.6,512.9
		c0,11.7,0.1,29.3,0.4,41.8h-0.4c-3.6-6.3-6-10.6-9.4-15.8L460.3,491H449v79.4h10.3v-21.9c0-11.7-0.1-29.3-0.3-41.8h0.3
		c3.6,6.3,6,10.5,9.4,15.8l30.9,47.9h11.4V491h-10.3V512.9z M511.4,371.8c-3.6,6.3-28.7,51.8-28.7,51.8s0,25.8,0,29.8H463v-30
		c0,0-24.2-45.5-27.6-51.7h18.5l19.7,36.9l20.4-36.9H511.4z M290.7,400.3V426c0,11.5-3.5,19.7-10.4,24c-5.3,3.7-14.5,5.5-27.4,5.5
		c-13.1,0-22-1.8-27.6-5.6c-6.8-4-10.2-12-10.2-23.9v-25.7c0-11.8,3.3-19.4,10.3-23.9c6.7-4.3,15.4-6,27.5-6c12.3,0,21.8,2.1,27.4,6
		C287.3,380.9,290.7,389,290.7,400.3 M272.2,400.4c0-14.1-5.1-17.2-19.3-17.2c-14.2,0-19.3,3.1-19.3,17.2v24.5
		c0,14.5,5,17.8,19.3,17.8c14.2,0,19.3-3.3,19.3-17.8V400.4z M173.8,453.4h-43.8v-81.7H171c23.4,0,32.5,8.8,32.5,31.2v18
		C203.4,444.6,195.4,453.4,173.8,453.4 M171.1,440.8c6.4,0,14-3.6,14-17.9v-22.3c0-13.3-7.6-16.9-14-16.9h-22.6v57.1H171.1z
		 M304.3,371.8v81.7h52.5v-13.6h-34v-68.1H304.3z M433.7,431.8c0,9.3-5.1,15.1-9,17.8c-2.3,1.6-7.2,3.9-19.1,3.9h-38.7v-81.7H405
		c8.7,0,12.8,1.5,16.3,3.7c4.2,2.6,8,7.2,8,16.1c0,10.2-3.1,17.3-17.6,18.6C429.9,409.8,433.7,420.8,433.7,431.8 M417,427.8
		c0-13.1-10.1-12.3-22.7-12.3V406c14.1-0.5,19.1-0.8,19.1-11c0-6.7-3.8-11.5-10-11.5h-18.2v0.1v58v0.1h16.7
		C412.9,441.6,417,434.3,417,427.8 M511.7,336.6H130.1V71.8h381.6V336.6z M301.5,203.8c0-52.9-37.7-97.7-82.9-97.7h-43.5v196.2h43.5
		C263.7,302.4,301.5,258.3,301.5,203.8 M466.8,106.1h-43.6c-45.2,0-82.9,44.8-82.9,97.7c0,54.5,37.7,98.5,82.9,98.5h43.6V106.1z"/>
</g>
</svg>
