<svg width="40" height="40" viewBox="0 0 40 40" fill="none" xmlns="http://www.w3.org/2000/svg">
<g filter="url(#filter0_d_22_907)">
<rect x="4" width="32" height="32" rx="6" fill="#112539"/>
</g>
<path fill-rule="evenodd" clip-rule="evenodd" d="M17.1469 21.8546C17.1003 21.8081 17.0634 21.7529 17.0382 21.6922C17.013 21.6315 17 21.5663 17 21.5006C17 21.4348 17.013 21.3697 17.0382 21.3089C17.0634 21.2482 17.1003 21.193 17.1469 21.1466L22.7939 15.5006L17.1469 9.85457C17.1004 9.80808 17.0635 9.75289 17.0384 9.69215C17.0132 9.63142 17.0003 9.56631 17.0003 9.50057C17.0003 9.43483 17.0132 9.36973 17.0384 9.30899C17.0635 9.24825 17.1004 9.19306 17.1469 9.14657C17.1934 9.10008 17.2486 9.06321 17.3093 9.03805C17.37 9.01289 17.4351 8.99994 17.5009 8.99994C17.5666 8.99994 17.6317 9.01289 17.6925 9.03805C17.7532 9.06321 17.8084 9.10008 17.8549 9.14657L23.8549 15.1466C23.9015 15.193 23.9384 15.2482 23.9636 15.3089C23.9888 15.3697 24.0018 15.4348 24.0018 15.5006C24.0018 15.5663 23.9888 15.6315 23.9636 15.6922C23.9384 15.7529 23.9015 15.8081 23.8549 15.8546L17.8549 21.8546C17.8084 21.9011 17.7533 21.9381 17.6925 21.9633C17.6318 21.9885 17.5667 22.0015 17.5009 22.0015C17.4351 22.0015 17.37 21.9885 17.3093 21.9633C17.2485 21.9381 17.1933 21.9011 17.1469 21.8546Z" fill="#FF4244"/>
<defs>
<filter id="filter0_d_22_907" x="0" y="0" width="40" height="40" filterUnits="userSpaceOnUse" color-interpolation-filters="sRGB">
<feFlood flood-opacity="0" result="BackgroundImageFix"/>
<feColorMatrix in="SourceAlpha" type="matrix" values="0 0 0 0 0 0 0 0 0 0 0 0 0 0 0 0 0 0 127 0" result="hardAlpha"/>
<feOffset dy="4"/>
<feGaussianBlur stdDeviation="2"/>
<feComposite in2="hardAlpha" operator="out"/>
<feColorMatrix type="matrix" values="0 0 0 0 0 0 0 0 0 0 0 0 0 0 0 0 0 0 0.25 0"/>
<feBlend mode="normal" in2="BackgroundImageFix" result="effect1_dropShadow_22_907"/>
<feBlend mode="normal" in="SourceGraphic" in2="effect1_dropShadow_22_907" result="shape"/>
</filter>
</defs>
</svg>
