<svg width="14" height="14" viewBox="0 0 14 14" fill="white" xmlns="http://www.w3.org/2000/svg">
    <path d="M7.94 6.99999L13.4667 1.47332C13.5759 1.34579 13.633 1.18174 13.6265 1.01396C13.62 0.846172 13.5504 0.687012 13.4317 0.568283C13.313 0.449553 13.1538 0.379998 12.986 0.373517C12.8183 0.367036 12.6542 0.424107 12.5267 0.533325L7 6.05999L1.47334 0.526658C1.3478 0.401122 1.17754 0.330597 1 0.330597C0.822468 0.330597 0.652205 0.401122 0.526669 0.526658C0.401133 0.652194 0.330608 0.822457 0.330608 0.999991C0.330608 1.17753 0.401133 1.34779 0.526669 1.47332L6.06 6.99999L0.526669 12.5267C0.456881 12.5864 0.400201 12.66 0.360186 12.7427C0.32017 12.8254 0.297683 12.9155 0.294137 13.0073C0.290591 13.0991 0.306061 13.1907 0.339577 13.2762C0.373094 13.3618 0.423932 13.4395 0.488902 13.5044C0.553872 13.5694 0.63157 13.6202 0.71712 13.6538C0.80267 13.6873 0.894225 13.7027 0.986038 13.6992C1.07785 13.6956 1.16794 13.6732 1.25065 13.6331C1.33336 13.5931 1.4069 13.5364 1.46667 13.4667L7 7.93999L12.5267 13.4667C12.6542 13.5759 12.8183 13.6329 12.986 13.6265C13.1538 13.62 13.313 13.5504 13.4317 13.4317C13.5504 13.313 13.62 13.1538 13.6265 12.986C13.633 12.8182 13.5759 12.6542 13.4667 12.5267L7.94 6.99999Z" fill="white"/>
</svg>
